Coordinates
version=1
nRows=11
nColumns=36
inDegrees=yes

Units are S.I. units (second, meters, Newtons, ...)
If the header above contains a line with 'inDegrees', this indicates whether rotational values are in degrees (yes) or radians (no).

endheader
time	pelvis_tilt	pelvis_list	pelvis_rotation	pelvis_tx	pelvis_ty	pelvis_tz	hip_flexion_r	hip_adduction_r	hip_rotation_r	knee_angle_r	knee_angle_r_beta	ankle_angle_r	subtalar_angle_r	mtp_angle_r	hip_flexion_l	hip_adduction_l	hip_rotation_l	knee_angle_l	knee_angle_l_beta	ankle_angle_l	subtalar_angle_l	mtp_angle_l	lumbar_extension	lumbar_bending	lumbar_rotation	arm_flex_r	arm_add_r	arm_rot_r	elbow_flex_r	pro_sup_r	arm_flex_l	arm_add_l	arm_rot_l	elbow_flex_l	pro_sup_l
      0.00000000	      0.52730537	      0.34906993	      0.36400470	     -0.05863191	      1.11601249	     -0.20124145	     25.78606447	      2.96747615	     -0.96940216	     18.11599042	      0.31618368	     -6.62841063	    -11.98039459	     -4.42935141	    -12.64589031	      1.28104207	     -6.70386674	     30.72248937	      0.53620859	     -2.97036631	     -6.50605856	     -4.42935141	    -10.14890866	      3.91830163	     -4.34538804	    -13.77597006	     -4.85242848	    -13.19531343	     39.81414665	    109.76409851	    -10.38533189	     -3.38532051	    -11.13609697	     46.37134083	    107.53348643
      0.01000000	      0.59802401	      0.08081964	      0.46950520	     -0.04529450	      1.11787138	     -0.19974346	     25.35687705	      3.31888651	     -1.06185054	     18.87096875	      0.32936054	     -5.97436792	    -12.42088630	     -4.46191277	    -11.09785687	      0.46562051	     -7.02389850	     34.30730212	      0.59877538	     -5.09039074	     -7.11482084	     -4.46191277	    -10.25754123	      4.32457447	     -4.23474370	    -13.80785027	     -4.88093467	    -13.26063063	     40.03186367	    109.74705369	    -10.61902419	     -3.28314822	    -11.18885406	     46.36559346	    107.65900953
      0.02000000	      0.37566966	     -0.00439323	      0.60459286	     -0.03232386	      1.11931697	     -0.19849623	     25.30570940	      3.44092234	     -1.14082508	     19.71772987	      0.34413931	     -5.44567652	    -12.70979566	     -4.55284012	     -9.20990515	     -0.00341773	     -6.87483783	     37.74195898	      0.65872145	     -8.17146436	     -8.95059791	     -4.55284012	    -10.04694682	      4.54584032	     -4.13858234	    -13.88430250	     -4.84994255	    -13.38936472	     40.27748836	    109.70272234	    -10.83043371	     -3.15508314	    -11.26688874	     46.29418158	    107.98944418
      0.03000000	      0.44497987	     -0.35465522	      0.78803223	     -0.01933808	      1.12111471	     -0.19713923	     24.76131338	      3.83472098	     -1.35117091	     20.22360378	      0.35296847	     -4.83239788	    -12.96108179	     -4.58491512	     -7.61413931	     -0.87842831	     -6.88145540	     41.11231015	      0.71754518	    -10.63655825	     -9.40965288	     -4.58491512	    -10.17086170	      5.05346487	     -4.04675898	    -13.88918258	     -4.90763830	    -13.36331049	     40.53380350	    109.70789852	    -11.02592371	     -3.05237790	    -11.20417945	     46.33529954	    108.11214854
      0.04000000	      0.40628933	     -0.68860171	      1.04687061	     -0.00668918	      1.12282684	     -0.19592379	     24.28451145	      4.16691101	     -1.66109832	     20.61542819	      0.35980710	     -4.26452088	    -13.13342516	     -4.61295253	     -5.81965857	     -1.68161087	     -6.62641304	     44.37335113	      0.77446108	    -13.38642462	    -10.10320954	     -4.61295253	    -10.18679088	      5.53811340	     -3.97035340	    -13.91334364	     -4.99803245	    -13.31864106	     40.79279685	    109.71852962	    -11.16659682	     -2.99488490	    -11.10196044	     46.38695512	    108.22664125
      0.05000000	      0.18218413	     -0.74913082	      1.32477568	      0.00542641	      1.12439457	     -0.19504700	     24.03322525	      4.14460997	     -2.04231253	     21.03558805	      0.36714027	     -3.71156435	    -12.88916517	     -4.69964481	     -3.75535824	     -1.99974805	     -6.08309039	     47.41095250	      0.82747722	    -17.15978273	    -12.46206893	     -4.69964481	    -10.00297070	      5.72850857	     -3.91896641	    -13.92294839	     -5.08096218	    -13.21363438	     41.02937254	    109.72471674	    -11.21405046	     -3.02402080	    -10.82106776	     46.26029619	    108.52314895
      0.06000000	      0.29702183	     -1.11717195	      1.65130920	      0.01752333	      1.12645305	     -0.19398008	     23.21967402	      4.48362186	     -2.44694961	     21.06069713	      0.36757851	     -3.13911590	    -12.86946838	     -4.72669065	     -2.02913848	     -2.77286707	     -5.62031009	     50.35664592	      0.87888927	    -19.35987872	    -12.62466446	     -4.72669065	    -10.21423649	      6.23766833	     -3.81572929	    -13.86255307	     -5.20729348	    -13.09451307	     41.25802635	    109.74942131	    -11.23273172	     -3.01109010	    -10.64003087	     46.33737166	    108.62798940
      0.07000000	      0.31125647	     -1.37135711	      2.00577553	      0.02924780	      1.12842936	     -0.19313272	     22.51339715	      4.66965467	     -2.90956249	     21.05265613	      0.36743817	     -2.61910317	    -12.69035421	     -4.75386438	     -0.15246855	     -3.32175753	     -5.03970804	     53.12323398	      0.92717534	    -21.34647581	    -13.32448352	     -4.75386438	    -10.28915229	      6.62925226	     -3.71011586	    -13.78597652	     -5.34861722	    -12.91360117	     41.52083891	    109.79078852	    -11.20089415	     -3.01916618	    -10.37870995	     46.39602429	    108.73852581
      0.08000000	      0.29059110	     -1.51194383	      2.34500646	      0.04075076	      1.13043076	     -0.19239507	     21.84382197	      4.71787323	     -3.41681134	     21.02402516	      0.36693846	     -2.03914744	    -12.32334832	     -4.78744934	      1.75330212	     -3.69452237	     -4.50791578	     55.67576269	      0.97172537	    -22.92008708	    -14.43193437	     -4.78744934	    -10.32401129	      6.89550749	     -3.61828298	    -13.72239032	     -5.52269159	    -12.69296940	     41.78084620	    109.85029936	    -11.16077054	     -3.07242789	    -10.03704082	     46.40789466	    108.86636673
      0.09000000	      0.38086866	     -1.56398987	      2.62407372	      0.05208582	      1.13266848	     -0.19168779	     21.04058654	      4.71121306	     -3.80811007	     20.95726082	      0.36577320	     -1.44682093	    -11.96270903	     -4.81606301	      3.47680490	     -3.90493857	     -3.99439331	     57.95551290	      1.01151452	    -23.59058912	    -15.38697582	     -4.81606301	    -10.50770731	      7.05495197	     -3.38350216	    -13.60577740	     -5.69657115	    -12.50036413	     41.97252925	    109.91111386	    -11.05652206	     -3.09811440	     -9.75206511	     46.47891802	    108.97196857
      0.10000000	      0.68310276	     -1.32396378	      2.71750641	      0.06323128	      1.13535549	     -0.19078311	     20.01592681	      4.49506647	     -3.84897982	     20.91438399	      0.36502486	     -1.22314408	    -11.79220472	     -4.82475080	      4.82866180	     -3.79575669	     -3.72813964	     59.82760391	      1.04418867	    -23.59446733	    -15.84699273	     -4.82475080	    -10.97685284	      6.83137135	     -3.03657467	    -13.34463755	     -5.78270192	    -12.40069465	     42.06428295	    109.93947412	    -10.87921796	     -3.13954300	     -9.68417476	     46.54357779	    109.00286216
